<svg width="40" height="40" viewBox="0 0 40 40" fill="none" xmlns="http://www.w3.org/2000/svg">
<path d="M14.1417 3.37845C13.7511 3.30648 13.3495 3.32013 12.9647 3.41845C12.5799 3.51677 12.221 3.69743 11.9128 3.94794C11.6046 4.19846 11.3544 4.51288 11.1796 4.86948C11.0047 5.22609 10.9093 5.61639 10.9 6.01345C10.7904 6.86225 10.9874 7.72227 11.4555 8.43875C11.9236 9.15524 12.632 9.68113 13.4533 9.92179C13.8437 9.99347 14.2449 9.97966 14.6294 9.88131C15.0139 9.78296 15.3725 9.60241 15.6804 9.3521C15.9884 9.10179 16.2384 8.78768 16.4133 8.43141C16.5882 8.07515 16.6837 7.6852 16.6933 7.28845C16.8033 6.4394 16.6065 5.57897 16.1384 4.86214C15.6703 4.1453 14.9633 3.61915 14.1417 3.37845ZM2.66665 12.3435C3.26665 11.8001 4.12332 11.5901 4.91332 11.7668C5.74411 11.9527 6.46949 12.4556 6.93499 13.1685C7.37665 13.8468 7.62332 14.6685 7.59499 15.4768C7.58086 15.8829 7.48553 16.2821 7.31464 16.6508C7.14375 17.0195 6.90076 17.3502 6.59999 17.6235C6.29839 17.8909 5.93761 18.0829 5.54733 18.1838C5.15704 18.2846 4.74839 18.2914 4.35499 18.2035C3.52189 18.0177 2.7945 17.5135 2.32832 16.7985C1.87852 16.1141 1.64827 15.3088 1.66832 14.4901C1.68288 14.0838 1.77872 13.6844 1.95019 13.3157C2.12166 12.947 2.36528 12.6164 2.66665 12.3435ZM25.955 3.37845C26.3455 3.30675 26.7468 3.3206 27.1314 3.41905C27.516 3.5175 27.8747 3.69819 28.1827 3.94868C28.4907 4.19917 28.7407 4.51349 28.9155 4.86996C29.0902 5.22643 29.1856 5.61656 29.195 6.01345C29.3045 6.86225 29.1076 7.72227 28.6395 8.43875C28.1714 9.15524 27.463 9.68113 26.6417 9.92179C26.2513 9.99347 25.8501 9.97966 25.4656 9.88131C25.0811 9.78296 24.7225 9.60241 24.4145 9.3521C24.1066 9.10179 23.8565 8.78768 23.6817 8.43141C23.5068 8.07515 23.4113 7.6852 23.4017 7.28845C23.2917 6.4394 23.4885 5.57897 23.9566 4.86214C24.4247 4.1453 25.1334 3.61915 25.955 3.37845ZM37.4283 12.3435C37.1266 12.0763 36.7657 11.8848 36.3753 11.7845C35.985 11.6842 35.5765 11.6782 35.1833 11.7668C34.3525 11.9526 33.627 12.4555 33.1617 13.1685C32.72 13.8468 32.4733 14.6685 32.5017 15.4768C32.5158 15.8829 32.6111 16.2821 32.782 16.6508C32.9529 17.0195 33.1959 17.3502 33.4967 17.6235C34.095 18.1668 34.9517 18.3768 35.7417 18.2001C36.5722 18.0146 37.2975 17.5123 37.7633 16.8001C38.205 16.1218 38.4517 15.3001 38.4233 14.4918C38.4092 14.0854 38.3139 13.686 38.143 13.317C37.9722 12.9481 37.7291 12.617 37.4283 12.3435ZM8.38165 31.6501C8.38165 32.9762 8.90844 34.248 9.84612 35.1857C10.7838 36.1233 12.0556 36.6501 13.3817 36.6501C16.715 36.6501 16.715 34.9835 20.0483 34.9835C23.3817 34.9835 23.3817 36.6501 26.715 36.6501C28.0411 36.6501 29.3128 36.1233 30.2505 35.1857C31.1882 34.248 31.715 32.9762 31.715 31.6501C31.715 24.9835 25.0483 16.6501 20.0483 16.6501C15.0483 16.6501 8.38165 24.9835 8.38165 31.6501Z" stroke="#28BFA4" stroke-width="2.8" stroke-miterlimit="10" stroke-linecap="square"/>
</svg>
