<svg width="40" height="40" viewBox="0 0 40 40" fill="none" xmlns="http://www.w3.org/2000/svg">
<g clip-path="url(#clip0_124_989)">
<path d="M8.51667 5.70835L11.2033 7.91669L12.4233 9.21835C13.385 10.245 13.825 11.6534 13.62 13.045C13.5122 13.7757 13.2305 14.4698 12.7987 15.069C12.3668 15.6682 11.7974 16.155 11.1383 16.4884L9.28334 17.4267C9.06 17.54 8.85334 17.6784 8.66334 17.84L8.14334 18.2834C7.72962 18.6364 7.45332 19.1238 7.36282 19.6601C7.27232 20.1964 7.37339 20.7474 7.64834 21.2167C7.735 21.3667 7.83667 21.5034 7.95334 21.6284L9.165 22.925C9.685 23.4817 10.065 24.1567 10.275 24.89L10.3583 25.18C10.5891 25.9885 10.5808 26.8466 10.3344 27.6504C10.088 28.4543 9.61416 29.1697 8.97 29.71C8.25029 30.3137 7.74515 31.134 7.53 32.0484L7.26334 33.1867M33.8667 8.00835L32.8233 8.60002C31.887 9.1315 30.8541 9.4709 29.785 9.59835L29.2783 9.65835C28.3686 9.76677 27.4464 9.69245 26.5657 9.43974C25.6851 9.18702 24.8638 8.76101 24.15 8.18669C23.136 7.37047 22.3743 6.28341 21.9533 5.05169L21.8433 4.72835C21.6584 4.18758 21.4165 3.668 21.1217 3.17835L20.2117 1.66669" stroke="#28BFA4" stroke-width="2.8" stroke-miterlimit="10"/>
<path d="M30.7066 19.6416C31.0098 20.2229 31.1781 20.865 31.1991 21.5203C31.2202 22.1755 31.0935 22.8271 30.8283 23.4266L30.1316 25.0016L29.135 27.2483C28.7434 28.1311 28.177 28.9254 27.47 29.5833L26.7783 30.2283C26.018 30.9359 25.0364 31.3586 24 31.425L23.575 31.4516C22.9958 31.4887 22.4161 31.3878 21.8836 31.1571C21.351 30.9265 20.8808 30.5728 20.5116 30.125C20.1594 29.6978 19.9085 29.1963 19.7777 28.6583C19.647 28.1202 19.6398 27.5595 19.7566 27.0183L19.9316 26.2016C20.0833 25.5 20.0916 24.7683 19.96 24.0616C19.8131 23.2815 19.8357 22.479 20.026 21.7084C20.2164 20.9377 20.5701 20.217 21.0633 19.595L21.1216 19.5216C21.7903 18.6834 22.6816 18.0503 23.6933 17.695L24.36 17.4616C25.3365 17.1178 26.3914 17.0628 27.3983 17.3033L27.8483 17.4116C28.4567 17.5569 29.0267 17.8313 29.5198 18.216C30.013 18.6007 30.4177 19.0869 30.7066 19.6416Z" stroke="#28BFA4" stroke-width="2.8" stroke-miterlimit="10" stroke-linecap="square"/>
<path d="M20 38.3334C30.125 38.3334 38.3333 30.125 38.3333 20C38.3333 9.87502 30.125 1.66669 20 1.66669C9.87499 1.66669 1.66666 9.87502 1.66666 20C1.66666 30.125 9.87499 38.3334 20 38.3334Z" stroke="#28BFA4" stroke-width="2.8" stroke-miterlimit="10" stroke-linecap="square"/>
</g>
<defs>
<clipPath id="clip0_124_989">
<rect width="40" height="40" fill="white"/>
</clipPath>
</defs>
</svg>
